<svg width="25" height="25" viewBox="0 0 25 25" fill="none" xmlns="http://www.w3.org/2000/svg">
<path d="M10.3693 23.5625C10.3693 23.7614 10.2902 23.9522 10.1496 24.0929C10.0089 24.2335 9.81818 24.3125 9.61926 24.3125H2.61926C2.15513 24.3125 1.71001 24.1282 1.38183 23.8C1.05364 23.4718 0.869263 23.0267 0.869263 22.5625V2.56253C0.869263 2.0984 1.05364 1.65328 1.38183 1.32509C1.71001 0.996905 2.15513 0.812531 2.61926 0.812531H9.61926C9.81818 0.812531 10.0089 0.891548 10.1496 1.0322C10.2902 1.17285 10.3693 1.36362 10.3693 1.56253C10.3693 1.76144 10.2902 1.95221 10.1496 2.09286C10.0089 2.23351 9.81818 2.31253 9.61926 2.31253H2.61926C2.55296 2.31253 2.48937 2.33887 2.44249 2.38575C2.3956 2.43264 2.36926 2.49623 2.36926 2.56253V22.5625C2.36926 22.6288 2.3956 22.6924 2.44249 22.7393C2.48937 22.7862 2.55296 22.8125 2.61926 22.8125H9.61926C9.81818 22.8125 10.0089 22.8915 10.1496 23.0322C10.2902 23.1729 10.3693 23.3636 10.3693 23.5625ZM24.1493 12.0325L19.1493 7.03253C19.0071 6.90005 18.819 6.82793 18.6247 6.83136C18.4304 6.83478 18.2451 6.9135 18.1076 7.05091C17.9702 7.18832 17.8915 7.37371 17.8881 7.56801C17.8847 7.76231 17.9568 7.95036 18.0893 8.09253L21.808 11.8125H9.61926C9.42035 11.8125 9.22959 11.8915 9.08893 12.0322C8.94828 12.1729 8.86926 12.3636 8.86926 12.5625C8.86926 12.7614 8.94828 12.9522 9.08893 13.0929C9.22959 13.2335 9.42035 13.3125 9.61926 13.3125H21.808L18.0893 17.0325C18.0156 17.1012 17.9565 17.184 17.9155 17.276C17.8745 17.368 17.8524 17.4673 17.8507 17.568C17.8489 17.6687 17.8674 17.7687 17.9051 17.8621C17.9429 17.9555 17.999 18.0403 18.0702 18.1116C18.1414 18.1828 18.2263 18.2389 18.3197 18.2767C18.4131 18.3144 18.5131 18.3329 18.6138 18.3311C18.7145 18.3293 18.8138 18.3073 18.9058 18.2663C18.9978 18.2253 19.0806 18.1662 19.1493 18.0925L24.1493 13.0925C24.2897 12.9519 24.3686 12.7613 24.3686 12.5625C24.3686 12.3638 24.2897 12.1732 24.1493 12.0325Z" fill="#7D7D7D"/>
</svg>
